<?xml version="1.0" encoding="UTF-8" standalone="no"?>
<svg
   xmlns:dc="http://purl.org/dc/elements/1.1/"
   xmlns:cc="http://creativecommons.org/ns#"
   xmlns:rdf="http://www.w3.org/1999/02/22-rdf-syntax-ns#"
   xmlns:svg="http://www.w3.org/2000/svg"
   xmlns="http://www.w3.org/2000/svg"
   xmlns:sodipodi="http://sodipodi.sourceforge.net/DTD/sodipodi-0.dtd"
   xmlns:inkscape="http://www.inkscape.org/namespaces/inkscape"
   height="30.000057"
   viewBox="0 0 32.857513 30.000057"
   width="32.857513"
   version="1.1"
   id="svg4"
   sodipodi:docname="gitlab.svg"
   inkscape:version="0.92.3 (2405546, 2018-03-11)">
  <metadata
     id="metadata10">
    <rdf:RDF>
      <cc:Work
         rdf:about="">
        <dc:format>image/svg+xml</dc:format>
        <dc:type
           rdf:resource="http://purl.org/dc/dcmitype/StillImage" />
        <dc:title></dc:title>
      </cc:Work>
    </rdf:RDF>
  </metadata>
  <defs
     id="defs8" />
  <sodipodi:namedview
     pagecolor="#ffffff"
     bordercolor="#666666"
     borderopacity="1"
     objecttolerance="10"
     gridtolerance="10"
     guidetolerance="10"
     inkscape:pageopacity="0"
     inkscape:pageshadow="2"
     inkscape:window-width="1366"
     inkscape:window-height="704"
     id="namedview6"
     showgrid="false"
     fit-margin-top="0"
     fit-margin-left="0"
     fit-margin-right="0"
     fit-margin-bottom="0"
     inkscape:zoom="5.6192405"
     inkscape:cx="-16.507726"
     inkscape:cy="20.28771"
     inkscape:window-x="0"
     inkscape:window-y="27"
     inkscape:window-maximized="1"
     inkscape:current-layer="svg4" />
  <path
     d="M 25.722974,4.8072039e-5 A 0.71437803,0.71437803 0 0 0 25.035175,0.49392407 L 21.481779,11.428953 H 11.375456 L 7.8220599,0.49392407 a 0.71437803,0.71437803 0 0 0 -1.3476957,-0.03069 L 2.191315,11.885164 a 0.71437803,0.71437803 0 0 0 -0.00279,0.007 l -2.14291986,5.714453 a 0.71437803,0.71437803 0 0 0 0.24833319,0.828707 l 15.70916267,11.424717 0.0056,0.0042 a 0.71437803,0.71437803 0 0 0 0.0014,0.0014 0.71437803,0.71437803 0 0 0 0.0293,0.01814 0.71437803,0.71437803 0 0 0 0.0293,0.01953 0.71437803,0.71437803 0 0 0 0.0056,0.0028 0.71437803,0.71437803 0 0 0 0.0042,0.0028 0.71437803,0.71437803 0 0 0 0.01256,0.007 0.71437803,0.71437803 0 0 0 0.01116,0.0056 0.71437803,0.71437803 0 0 0 0.04604,0.02093 0.71437803,0.71437803 0 0 0 0.0014,0.0014 0.71437803,0.71437803 0 0 0 0.04883,0.01814 0.71437803,0.71437803 0 0 0 0.0028,0.0014 0.71437803,0.71437803 0 0 0 0.03767,0.01116 0.71437803,0.71437803 0 0 0 0.01814,0.0056 0.71437803,0.71437803 0 0 0 0.0014,0 0.71437803,0.71437803 0 0 0 0.04185,0.0084 0.71437803,0.71437803 0 0 0 0.05581,0.0084 0.71437803,0.71437803 0 0 0 0.08789,0.0028 0.71437803,0.71437803 0 0 0 0.07673,-0.0056 0.71437803,0.71437803 0 0 0 0.0293,-0.0042 0.71437803,0.71437803 0 0 0 0.007,-0.0014 0.71437803,0.71437803 0 0 0 0.01256,-0.0014 0.71437803,0.71437803 0 0 0 0.01116,-0.0028 0.71437803,0.71437803 0 0 0 0.02093,-0.0056 0.71437803,0.71437803 0 0 0 0.0293,-0.0084 0.71437803,0.71437803 0 0 0 0.0084,-0.0014 0.71437803,0.71437803 0 0 0 0.0084,-0.0028 0.71437803,0.71437803 0 0 0 0.03767,-0.01395 0.71437803,0.71437803 0 0 0 0.03767,-0.01534 0.71437803,0.71437803 0 0 0 0.0028,-0.0014 0.71437803,0.71437803 0 0 0 0.0098,-0.0042 0.71437803,0.71437803 0 0 0 0.01814,-0.0084 0.71437803,0.71437803 0 0 0 0.04464,-0.02651 0.71437803,0.71437803 0 0 0 0.01117,-0.007 0.71437803,0.71437803 0 0 0 0.0056,-0.0028 0.71437803,0.71437803 0 0 0 0.03348,-0.02232 l 0.0084,-0.007 15.706375,-11.421929 a 0.71437803,0.71437803 0 0 0 0.248333,-0.828707 l -2.135945,-5.694922 a 0.71437803,0.71437803 0 0 0 -0.007,-0.01953 L 26.382976,0.46317607 A 0.71437803,0.71437803 0 0 0 25.722974,4.8072039e-5 Z M 4.3328396,12.857567 h 6.0046394 l 4.1826,12.868679 z m 18.1869154,0 h 6.00464 L 18.337155,25.726246 Z M 3.081408,13.577453 12.633864,25.643934 1.5732724,17.599614 Z m 26.694419,0 1.508135,4.022161 -11.060591,8.04432 z"
     id="path2"
     inkscape:connector-curvature="0"
     style="fill:#000000;stroke-width:0.71430659" />
</svg>
