<?xml version="1.0" encoding="UTF-8" standalone="no"?>
<!-- Generator: Adobe Illustrator 18.1.1, SVG Export Plug-In . SVG Version: 6.00 Build 0)  -->

<svg
   xmlns:dc="http://purl.org/dc/elements/1.1/"
   xmlns:cc="http://creativecommons.org/ns#"
   xmlns:rdf="http://www.w3.org/1999/02/22-rdf-syntax-ns#"
   xmlns:svg="http://www.w3.org/2000/svg"
   xmlns="http://www.w3.org/2000/svg"
   xmlns:sodipodi="http://sodipodi.sourceforge.net/DTD/sodipodi-0.dtd"
   xmlns:inkscape="http://www.inkscape.org/namespaces/inkscape"
   version="1.1"
   id="Capa_1"
   x="0px"
   y="0px"
   viewBox="0 0 30.000217 30.000001"
   xml:space="preserve"
   sodipodi:docname="feed.svg"
   inkscape:version="0.92.3 (2405546, 2018-03-11)"
   width="30.000217"
   height="30.000002"><metadata
   id="metadata43"><rdf:RDF><cc:Work
       rdf:about=""><dc:format>image/svg+xml</dc:format><dc:type
         rdf:resource="http://purl.org/dc/dcmitype/StillImage" /><dc:title></dc:title></cc:Work></rdf:RDF></metadata><defs
   id="defs41" /><sodipodi:namedview
   pagecolor="#ffffff"
   bordercolor="#666666"
   borderopacity="1"
   objecttolerance="10"
   gridtolerance="10"
   guidetolerance="10"
   inkscape:pageopacity="0"
   inkscape:pageshadow="2"
   inkscape:window-width="1366"
   inkscape:window-height="704"
   id="namedview39"
   showgrid="false"
   inkscape:zoom="2.3866364"
   inkscape:cx="-74.986865"
   inkscape:cy="10.289624"
   inkscape:window-x="0"
   inkscape:window-y="27"
   inkscape:window-maximized="1"
   inkscape:current-layer="g6"
   fit-margin-top="0"
   fit-margin-left="0"
   fit-margin-right="0"
   fit-margin-bottom="0" />
<g
   id="g6"
   transform="translate(0,-529.37)">
	<g
   id="g4"
   style="fill:#f36e30;fill-opacity:1"
   transform="matrix(0.05363196,0,0,0.05363196,0,529.36989)">
		<path
   style="fill:#f36e30;fill-opacity:1"
   d="m 53.244,0.002 c 46.512,0 91.29,6.018 134.334,18.054 43.044,12.036 83.334,29.07 120.869,51.102 37.537,22.032 71.707,48.45 102.514,79.254 30.803,30.804 57.221,64.974 79.254,102.51 22.029,37.539 39.063,77.828 51.102,120.873 12.037,43.043 18.055,87.818 18.055,134.334 0,14.688 -5.201,27.23 -15.605,37.637 -10.404,10.407 -22.949,15.604 -37.637,15.604 -14.689,0 -27.234,-5.199 -37.641,-15.604 -10.402,-10.404 -15.604,-22.949 -15.604,-37.637 0,-36.723 -4.795,-72.115 -14.383,-106.186 -9.588,-34.064 -23.055,-65.891 -40.395,-95.471 -17.34,-29.581 -38.145,-56.509 -62.424,-80.785 -24.277,-24.276 -51.203,-45.084 -80.784,-62.424 -29.58,-17.34 -61.404,-30.804 -95.472,-40.392 -34.068,-9.588 -69.462,-14.382 -106.182,-14.382 -14.688,0 -27.234,-5.202 -37.638,-15.606 C 5.203,80.479 0.001,67.933 0.001,53.245 0.001,38.557 5.203,26.011 15.607,15.607 26.01,5.204 38.556,0.002 53.244,0.002 Z m 0,201.348 c 42.024,0 81.498,8.058 118.422,24.174 36.924,16.116 69.156,37.944 96.696,65.484 27.541,27.541 49.369,59.771 65.484,96.693 16.117,36.928 24.174,76.398 24.174,118.426 0,14.688 -5.201,27.23 -15.604,37.637 -10.404,10.404 -22.949,15.604 -37.641,15.604 -14.688,0 -27.233,-5.199 -37.637,-15.604 -10.404,-10.404 -15.606,-22.949 -15.606,-37.637 0,-27.338 -5.202,-53.041 -15.606,-77.113 C 225.522,404.942 211.344,383.93 193.392,365.979 175.44,348.026 154.428,333.848 130.356,323.444 106.284,313.042 80.58,307.84 53.244,307.84 38.556,307.84 26.01,302.639 15.606,292.235 5.202,281.83 0,269.284 0,254.596 0,239.908 5.202,227.362 15.606,216.958 26.01,206.552 38.556,201.35 53.244,201.35 Z m 97.92,279.683 c 0,10.609 -1.938,20.4 -5.814,29.377 -3.876,8.979 -9.18,16.83 -15.912,23.563 -6.732,6.729 -14.688,12.035 -23.868,15.912 -9.18,3.875 -18.87,5.811 -29.07,5.811 -10.608,0 -20.4,-1.938 -29.376,-5.811 C 38.148,546.01 30.294,540.701 23.562,533.973 16.83,527.241 11.526,519.387 7.65,510.41 3.774,501.433 1.836,491.642 1.836,481.033 c 0,-10.197 1.938,-19.889 5.814,-29.066 3.876,-9.184 9.18,-17.139 15.912,-23.869 6.732,-6.732 14.586,-12.035 23.562,-15.912 8.976,-3.875 18.768,-5.814 29.376,-5.814 10.2,0 19.89,1.939 29.07,5.814 9.18,3.877 17.136,9.18 23.868,15.912 6.732,6.73 12.036,14.688 15.912,23.869 3.876,9.178 5.814,18.867 5.814,29.066 z"
   id="path2"
   inkscape:connector-curvature="0" />
	</g>
</g>
<g
   id="g8"
   transform="translate(0,-529.37)">
</g>
<g
   id="g10"
   transform="translate(0,-529.37)">
</g>
<g
   id="g12"
   transform="translate(0,-529.37)">
</g>
<g
   id="g14"
   transform="translate(0,-529.37)">
</g>
<g
   id="g16"
   transform="translate(0,-529.37)">
</g>
<g
   id="g18"
   transform="translate(0,-529.37)">
</g>
<g
   id="g20"
   transform="translate(0,-529.37)">
</g>
<g
   id="g22"
   transform="translate(0,-529.37)">
</g>
<g
   id="g24"
   transform="translate(0,-529.37)">
</g>
<g
   id="g26"
   transform="translate(0,-529.37)">
</g>
<g
   id="g28"
   transform="translate(0,-529.37)">
</g>
<g
   id="g30"
   transform="translate(0,-529.37)">
</g>
<g
   id="g32"
   transform="translate(0,-529.37)">
</g>
<g
   id="g34"
   transform="translate(0,-529.37)">
</g>
<g
   id="g36"
   transform="translate(0,-529.37)">
</g>
</svg>