<?xml version="1.0" encoding="UTF-8" standalone="no"?>
<svg
   xmlns:dc="http://purl.org/dc/elements/1.1/"
   xmlns:cc="http://creativecommons.org/ns#"
   xmlns:rdf="http://www.w3.org/1999/02/22-rdf-syntax-ns#"
   xmlns:svg="http://www.w3.org/2000/svg"
   xmlns="http://www.w3.org/2000/svg"
   xmlns:sodipodi="http://sodipodi.sourceforge.net/DTD/sodipodi-0.dtd"
   xmlns:inkscape="http://www.inkscape.org/namespaces/inkscape"
   width="27.983442"
   height="30.000011"
   viewBox="0 0 26.234477 28.12501"
   version="1.1"
   id="svg6"
   sodipodi:docname="mastodon.svg"
   inkscape:version="0.92.3 (2405546, 2018-03-11)">
  <metadata
     id="metadata12">
    <rdf:RDF>
      <cc:Work
         rdf:about="">
        <dc:format>image/svg+xml</dc:format>
        <dc:type
           rdf:resource="http://purl.org/dc/dcmitype/StillImage" />
        <dc:title></dc:title>
      </cc:Work>
    </rdf:RDF>
  </metadata>
  <defs
     id="defs10" />
  <sodipodi:namedview
     pagecolor="#ffffff"
     bordercolor="#666666"
     borderopacity="1"
     objecttolerance="10"
     gridtolerance="10"
     guidetolerance="10"
     inkscape:pageopacity="0"
     inkscape:pageshadow="2"
     inkscape:window-width="1366"
     inkscape:window-height="704"
     id="namedview8"
     showgrid="false"
     inkscape:zoom="7.6289895"
     inkscape:cx="28.872855"
     inkscape:cy="20.527603"
     inkscape:window-x="0"
     inkscape:window-y="27"
     inkscape:window-maximized="1"
     inkscape:current-layer="svg6"
     fit-margin-top="0"
     fit-margin-left="0"
     fit-margin-right="0"
     fit-margin-bottom="0"
     showguides="false"
     units="px" />
  <path
     style="fill:#2b90d9;fill-opacity:1;stroke-width:0.12930492"
     d="M 13.947266 0 C 10.111921 0.031360001 6.4234548 0.44619107 4.2734375 1.4335938 C 4.2734375 1.4335938 0.009765625 3.3416946 0.009765625 9.8496094 C 0.009765625 11.339849 -0.019852539 13.122097 0.02734375 15.011719 C 0.18218638 21.376114 1.1937821 27.647606 7.078125 29.205078 C 9.7912652 29.923254 12.120043 30.07385 13.996094 29.970703 C 17.398267 29.782084 19.308594 28.755859 19.308594 28.755859 L 19.197266 26.289062 C 19.197266 26.289063 16.765591 27.054378 14.035156 26.960938 C 11.329937 26.868169 8.4746448 26.669011 8.0371094 23.347656 C 7.9967008 23.055912 7.9765625 22.743642 7.9765625 22.416016 C 7.9765625 22.416016 10.630611 23.066506 13.996094 23.220703 C 16.053982 23.315092 17.985211 23.099122 19.945312 22.865234 C 23.704205 22.416392 26.97732 20.10061 27.388672 17.984375 C 28.036816 14.650732 27.982422 9.8496094 27.982422 9.8496094 C 27.982422 3.3416946 23.71875 1.4335938 23.71875 1.4335938 C 21.568893 0.44619107 17.876361 0.031360001 14.041016 0 L 13.947266 0 z M 9.6074219 5.0859375 C 11.204985 5.0859375 12.414932 5.6994997 13.214844 6.9277344 L 13.992188 8.2304688 L 14.769531 6.9277344 C 15.569283 5.6994997 16.779229 5.0859375 18.376953 5.0859375 C 19.757606 5.0859375 20.869217 5.5707408 21.71875 6.5175781 C 22.54226 7.4644155 22.953125 8.7430303 22.953125 10.353516 L 22.953125 18.234375 L 19.830078 18.234375 L 19.830078 10.585938 C 19.830078 8.9736601 19.151816 8.15625 17.794922 8.15625 C 16.294662 8.15625 15.542969 9.1253805 15.542969 11.044922 L 15.542969 15.232422 L 12.439453 15.232422 L 12.439453 11.044922 C 12.439453 9.1253805 11.687761 8.15625 10.1875 8.15625 C 8.8306066 8.15625 8.1523438 8.9736601 8.1523438 10.585938 L 8.1523438 18.234375 L 5.03125 18.234375 L 5.03125 10.353516 C 5.03125 8.7430303 5.4399995 7.4644155 6.2636719 6.5175781 C 7.1130434 5.5707408 8.226607 5.0859375 9.6074219 5.0859375 z "
     transform="scale(0.93749998)"
     id="path2" />
</svg>
