<?xml version="1.0" encoding="UTF-8" standalone="no"?>
<svg
   xmlns:dc="http://purl.org/dc/elements/1.1/"
   xmlns:cc="http://creativecommons.org/ns#"
   xmlns:rdf="http://www.w3.org/1999/02/22-rdf-syntax-ns#"
   xmlns:svg="http://www.w3.org/2000/svg"
   xmlns="http://www.w3.org/2000/svg"
   xmlns:sodipodi="http://sodipodi.sourceforge.net/DTD/sodipodi-0.dtd"
   xmlns:inkscape="http://www.inkscape.org/namespaces/inkscape"
   enable-background="new 0.995 1.495 88 31"
   height="30"
   viewBox="0.995 1.495 102.38159 30"
   width="102.38159"
   version="1.1"
   id="svg36"
   sodipodi:docname="public-domain.svg"
   inkscape:version="0.92.3 (2405546, 2018-03-11)">
  <metadata
     id="metadata42">
    <rdf:RDF>
      <cc:Work
         rdf:about="">
        <dc:format>image/svg+xml</dc:format>
        <dc:type
           rdf:resource="http://purl.org/dc/dcmitype/StillImage" />
        <dc:title></dc:title>
      </cc:Work>
    </rdf:RDF>
  </metadata>
  <defs
     id="defs40" />
  <sodipodi:namedview
     pagecolor="#ffffff"
     bordercolor="#666666"
     borderopacity="1"
     objecttolerance="10"
     gridtolerance="10"
     guidetolerance="10"
     inkscape:pageopacity="0"
     inkscape:pageshadow="2"
     inkscape:window-width="1366"
     inkscape:window-height="704"
     id="namedview38"
     showgrid="false"
     inkscape:zoom="4.6378528"
     inkscape:cx="43.834762"
     inkscape:cy="11.753192"
     inkscape:window-x="0"
     inkscape:window-y="27"
     inkscape:window-maximized="1"
     inkscape:current-layer="g34"
     fit-margin-top="0"
     fit-margin-left="0"
     fit-margin-right="0"
     fit-margin-bottom="0" />
  <g
     transform="translate(-2.526,3.197)"
     id="g34">
    <path
       d="M 29.90259,-1.2468381 C 34.055022,2.0486358 36.76054,7.327496 36.76173,13.298 36.76053,18.729429 34.521039,23.589999 30.990758,26.905815 H 105.90259 V -1.2468381 Z"
       id="path4"
       inkscape:connector-curvature="0"
       style="fill:#4d4d4d;fill-opacity:1;stroke-width:1.23098791" />
    <path
       d="m 18.423102,-1.702 c -8.229785,0 -14.902102,6.715545 -14.902102,15 0,8.283184 6.672317,15 14.903374,15 8.229784,0 14.902101,-6.716816 14.902101,-15 -0.0013,-8.284455 -6.673589,-15 -14.903373,-15 z m 0,27.187658 c -6.677403,0 -12.108832,-5.46957 -12.108832,-12.187658 0,-1.406171 0.240295,-2.757671 0.6789287,-4.0150872 L 11.72917,11.404882 c -0.12714,0.639515 -0.195795,1.304459 -0.195795,1.992287 0,5.987032 4.439736,7.674183 7.233006,7.674183 1.649007,0 3.07425,-0.536532 4.19054,-1.320987 0.116964,-0.08392 0.227581,-0.169097 0.333108,-0.253009 l -2.235125,-2.349551 c -0.813697,0.7069 -1.669351,0.495847 -1.868961,0.495847 -2.273267,0 -3.225546,-2.414392 -3.23826,-4.349467 l 13.052211,5.850993 c 0.01525,0.0025 0.02797,0.0025 0.04068,0.005 -2.05967,3.770978 -6.046786,6.335395 -10.617477,6.335395 z M 30.090758,16.410392 16.630425,10.364876 c 0.485676,-0.8874384 1.257417,-1.5523824 2.413121,-1.5523824 0.6713,0 1.202747,0.2250384 1.622309,0.5047464 0.174182,0.1271412 0.324207,0.2542812 0.451347,0.3814212 l 2.425835,-2.5148328 c -1.628665,-1.4087136 -3.48237,-1.6629941 -4.694016,-1.6629941 -2.846669,0 -4.861841,1.2408881 -6.050601,3.1212917 L 8.2976571,6.6205976 C 10.464126,3.3047808 14.191876,1.1065269 18.421831,1.1065269 c 6.676131,0 12.107561,5.4670283 12.107561,12.1889301 0,1.085777 -0.143669,2.142312 -0.410663,3.145449 -0.0089,-0.0089 -0.01652,-0.01907 -0.02797,-0.03052 z"
       id="path6"
       inkscape:connector-curvature="0"
       style="fill:#4d4d4d;fill-opacity:1;stroke-width:1.271402" />
    <g
       id="g32"
       transform="matrix(1.2714019,0,0,1.2714019,-0.9556062,-7.6801319)"
       style="fill:#ffffff">
      <path
         d="m 36.739,8.557 c 0.392,0 0.728,0.059 1.002,0.173 0.276,0.116 0.5,0.268 0.674,0.456 0.173,0.189 0.299,0.405 0.379,0.647 0.079,0.241 0.118,0.493 0.118,0.753 0,0.253 -0.039,0.503 -0.118,0.749 -0.08,0.244 -0.206,0.462 -0.379,0.65 -0.174,0.188 -0.397,0.341 -0.674,0.456 -0.274,0.115 -0.61,0.173 -1.002,0.173 h -1.452 v 2.267 H 33.905 V 8.557 Z m -0.379,2.976 c 0.158,0 0.312,-0.012 0.457,-0.035 0.147,-0.023 0.276,-0.069 0.388,-0.137 0.111,-0.068 0.201,-0.164 0.269,-0.288 0.068,-0.124 0.101,-0.287 0.101,-0.487 0,-0.201 -0.033,-0.363 -0.101,-0.488 C 37.407,9.975 37.317,9.878 37.205,9.812 37.094,9.743 36.965,9.698 36.817,9.674 36.671,9.65 36.518,9.638 36.36,9.638 h -1.073 v 1.896 z"
         id="path8"
         inkscape:connector-curvature="0"
         style="fill:#ffffff" />
      <path
         d="m 44.751,14.398 c -0.476,0.417 -1.133,0.625 -1.972,0.625 -0.851,0 -1.509,-0.207 -1.976,-0.62 C 40.337,13.99 40.104,13.351 40.104,12.49 V 8.557 h 1.381 v 3.934 c 0,0.171 0.016,0.339 0.045,0.506 0.029,0.165 0.091,0.311 0.185,0.438 0.094,0.125 0.225,0.229 0.392,0.309 0.167,0.08 0.392,0.119 0.673,0.119 0.493,0 0.833,-0.109 1.021,-0.332 0.188,-0.221 0.282,-0.568 0.282,-1.04 V 8.557 h 1.382 v 3.934 c -0.001,0.855 -0.239,1.491 -0.714,1.907 z"
         id="path10"
         inkscape:connector-curvature="0"
         style="fill:#ffffff" />
      <path
         d="m 50.069,8.557 c 0.301,0 0.572,0.027 0.817,0.081 0.246,0.053 0.459,0.14 0.636,0.26 0.176,0.121 0.312,0.282 0.407,0.483 0.099,0.201 0.146,0.45 0.146,0.745 0,0.318 -0.071,0.584 -0.217,0.796 -0.144,0.212 -0.355,0.388 -0.637,0.522 0.387,0.112 0.676,0.309 0.865,0.589 0.191,0.281 0.286,0.619 0.286,1.015 0,0.319 -0.062,0.595 -0.185,0.829 -0.123,0.232 -0.289,0.422 -0.498,0.57 -0.207,0.148 -0.445,0.257 -0.713,0.328 -0.269,0.07 -0.541,0.105 -0.822,0.105 H 47.11 V 8.557 Z m -0.173,2.56 c 0.246,0 0.447,-0.059 0.606,-0.178 0.157,-0.118 0.237,-0.309 0.237,-0.576 0,-0.147 -0.026,-0.269 -0.08,-0.362 C 50.606,9.906 50.537,9.833 50.448,9.779 50.36,9.726 50.26,9.689 50.145,9.67 50.03,9.648 49.912,9.638 49.789,9.638 h -1.294 v 1.479 z m 0.078,2.685 c 0.135,0 0.264,-0.014 0.387,-0.04 0.125,-0.026 0.231,-0.072 0.326,-0.133 0.094,-0.062 0.168,-0.147 0.227,-0.254 0.056,-0.104 0.083,-0.241 0.083,-0.406 0,-0.325 -0.093,-0.557 -0.271,-0.696 -0.184,-0.138 -0.425,-0.208 -0.724,-0.208 h -1.505 v 1.737 z"
         id="path12"
         inkscape:connector-curvature="0"
         style="fill:#ffffff" />
      <path
         d="m 55.142,8.557 v 5.155 h 3.062 v 1.169 H 53.76 V 8.557 Z"
         id="path14"
         inkscape:connector-curvature="0"
         style="fill:#ffffff" />
      <path
         d="m 60.748,8.557 v 6.324 H 59.366 V 8.557 Z"
         id="path16"
         inkscape:connector-curvature="0"
         style="fill:#ffffff" />
      <path
         d="M 66.45,10.244 C 66.368,10.112 66.266,9.996 66.143,9.895 66.018,9.794 65.878,9.716 65.722,9.66 65.569,9.603 65.407,9.575 65.235,9.575 c -0.312,0 -0.574,0.062 -0.791,0.183 -0.217,0.12 -0.396,0.283 -0.527,0.486 -0.137,0.204 -0.232,0.436 -0.296,0.695 -0.062,0.26 -0.093,0.529 -0.093,0.806 0,0.267 0.031,0.525 0.093,0.776 0.062,0.251 0.159,0.477 0.296,0.677 0.134,0.201 0.311,0.361 0.527,0.483 0.217,0.12 0.479,0.181 0.791,0.181 0.424,0 0.754,-0.129 0.99,-0.389 0.236,-0.26 0.383,-0.602 0.437,-1.028 h 1.337 c -0.034,0.396 -0.126,0.753 -0.271,1.072 -0.146,0.318 -0.34,0.591 -0.58,0.815 -0.24,0.224 -0.521,0.395 -0.846,0.513 -0.322,0.119 -0.678,0.178 -1.064,0.178 -0.48,0 -0.914,-0.084 -1.299,-0.252 -0.383,-0.17 -0.709,-0.399 -0.972,-0.696 -0.265,-0.295 -0.468,-0.641 -0.606,-1.04 -0.143,-0.399 -0.213,-0.829 -0.213,-1.29 0,-0.472 0.07,-0.91 0.213,-1.314 0.141,-0.404 0.344,-0.757 0.606,-1.058 0.263,-0.302 0.589,-0.537 0.972,-0.709 0.385,-0.172 0.816,-0.258 1.299,-0.258 0.347,0 0.675,0.051 0.98,0.15 0.309,0.102 0.583,0.248 0.827,0.439 0.243,0.191 0.444,0.43 0.603,0.713 0.16,0.283 0.258,0.608 0.301,0.974 H 66.61 c -0.024,-0.159 -0.078,-0.305 -0.16,-0.438 z"
         id="path18"
         inkscape:connector-curvature="0"
         style="fill:#ffffff" />
      <path
         d="m 36.615,17.415 c 0.405,0 0.782,0.064 1.131,0.193 0.35,0.131 0.651,0.326 0.906,0.586 0.255,0.26 0.455,0.584 0.599,0.975 0.144,0.389 0.216,0.848 0.216,1.372 0,0.462 -0.059,0.888 -0.176,1.274 -0.118,0.391 -0.295,0.728 -0.532,1.012 -0.238,0.283 -0.534,0.506 -0.89,0.668 -0.354,0.162 -0.772,0.244 -1.254,0.244 h -2.71 v -6.324 z m -0.096,5.154 c 0.199,0 0.393,-0.031 0.581,-0.097 0.188,-0.066 0.354,-0.174 0.502,-0.323 0.146,-0.151 0.264,-0.349 0.352,-0.59 0.088,-0.242 0.132,-0.537 0.132,-0.887 0,-0.316 -0.031,-0.605 -0.093,-0.863 -0.062,-0.257 -0.162,-0.478 -0.304,-0.658 -0.141,-0.186 -0.326,-0.324 -0.559,-0.422 -0.231,-0.099 -0.517,-0.146 -0.858,-0.146 h -0.984 v 3.984 h 1.231 z"
         id="path20"
         inkscape:connector-curvature="0"
         style="fill:#ffffff" />
      <path
         d="m 40.8,19.289 c 0.141,-0.405 0.344,-0.759 0.606,-1.06 0.265,-0.304 0.589,-0.537 0.973,-0.709 0.385,-0.172 0.816,-0.258 1.298,-0.258 0.487,0 0.921,0.086 1.303,0.258 0.383,0.172 0.705,0.405 0.969,0.709 0.265,0.301 0.467,0.652 0.605,1.06 0.143,0.403 0.213,0.843 0.213,1.313 0,0.461 -0.07,0.892 -0.213,1.288 -0.141,0.397 -0.343,0.746 -0.605,1.041 -0.264,0.296 -0.586,0.526 -0.969,0.694 -0.382,0.168 -0.814,0.253 -1.303,0.253 -0.481,0 -0.913,-0.085 -1.298,-0.253 -0.384,-0.168 -0.708,-0.398 -0.973,-0.694 -0.263,-0.295 -0.466,-0.644 -0.606,-1.041 -0.141,-0.396 -0.211,-0.827 -0.211,-1.288 0,-0.47 0.07,-0.91 0.211,-1.313 z m 1.262,2.089 c 0.062,0.252 0.16,0.479 0.295,0.68 0.135,0.199 0.312,0.36 0.527,0.48 0.218,0.121 0.481,0.184 0.792,0.184 0.312,0 0.576,-0.062 0.792,-0.184 0.219,-0.12 0.395,-0.281 0.529,-0.48 0.134,-0.201 0.232,-0.428 0.295,-0.68 0.062,-0.25 0.092,-0.509 0.092,-0.773 0,-0.276 -0.029,-0.547 -0.092,-0.807 -0.062,-0.261 -0.161,-0.49 -0.295,-0.695 -0.137,-0.203 -0.312,-0.365 -0.529,-0.486 -0.216,-0.12 -0.48,-0.182 -0.792,-0.182 -0.311,0 -0.574,0.062 -0.792,0.182 -0.216,0.121 -0.393,0.283 -0.527,0.486 -0.135,0.205 -0.233,0.437 -0.295,0.695 -0.062,0.258 -0.093,0.527 -0.093,0.807 10e-4,0.264 0.032,0.523 0.093,0.773 z"
         id="path22"
         inkscape:connector-curvature="0"
         style="fill:#ffffff" />
      <path
         d="m 50.092,17.415 1.47,4.35 h 0.021 l 1.391,-4.35 h 1.944 v 6.324 h -1.294 v -4.482 h -0.019 l -1.541,4.482 h -1.062 l -1.54,-4.438 h -0.019 v 4.438 h -1.295 v -6.324 z"
         id="path24"
         inkscape:connector-curvature="0"
         style="fill:#ffffff" />
      <path
         d="m 59.765,17.415 2.35,6.324 h -1.436 l -0.475,-1.408 h -2.35 l -0.494,1.408 h -1.392 l 2.377,-6.324 z m 0.079,3.88 -0.793,-2.321 h -0.019 l -0.816,2.321 z"
         id="path26"
         inkscape:connector-curvature="0"
         style="fill:#ffffff" />
      <path
         d="m 64.547,17.415 v 6.324 h -1.382 v -6.324 z"
         id="path28"
         inkscape:connector-curvature="0"
         style="fill:#ffffff" />
      <path
         d="m 67.603,17.415 2.623,4.242 h 0.018 v -4.242 h 1.295 v 6.324 h -1.383 l -2.613,-4.234 h -0.018 v 4.234 H 66.23 v -6.324 z"
         id="path30"
         inkscape:connector-curvature="0"
         style="fill:#ffffff" />
    </g>
  </g>
</svg>
